HIERARCHY
ROOT Hips
{
	OFFSET 0.00 0.00 0.00
	CHANNELS 6 Xposition Yposition Zposition Xrotation Yrotation Zrotation
	JOINT Spine
	{
		OFFSET 0.00000 7.50895 0.00000
		CHANNELS 3 Xrotation Yrotation Zrotation
		JOINT Head
		{
			OFFSET 0.00000 13.86115 0.00000
			CHANNELS 3 Xrotation Yrotation Zrotation
			End Site
			{
				OFFSET 0.00000 4.52755 0.00000
			}
		}
		JOINT LeftShoulder
		{
			OFFSET 0.00000 8.20478 0.00000
			CHANNELS 3 Xrotation Yrotation Zrotation
			JOINT LeftArm
			{
				OFFSET 6.63596 0.00000 0.00000
				CHANNELS 3 Xrotation Yrotation Zrotation
				JOINT LeftForeArm
				{
					OFFSET 10.27422 0.00000 0.00000
					CHANNELS 3 Yrotation Zrotation Xrotation
					JOINT LeftHand
					{
						OFFSET 8.52215 0.00000 0.00000
						CHANNELS 3 Xrotation Yrotation Zrotation
						JOINT LeftHandThumb1
						{
							OFFSET 0.00000 0.00000 0.00000
							CHANNELS 3 Xrotation Zrotation Yrotation
							End Site
							{
								OFFSET 0.00000 0.00000 3.93700
							}
						}
						End Site
						{
							OFFSET 3.93700 0.00000 0.00000
						}
					}
				}
			}
		}
		JOINT RightShoulder
		{
			OFFSET 0.00000 8.20478 0.00000
			CHANNELS 3 Xrotation Yrotation Zrotation
			JOINT RightArm
			{
				OFFSET -6.63596 0.00000 0.00000
				CHANNELS 3 Xrotation Yrotation Zrotation
				JOINT RightForeArm
				{
					OFFSET -10.27422 0.00000 0.00000
					CHANNELS 3 Yrotation Zrotation Xrotation
					JOINT RightHand
					{
						OFFSET -8.52215 0.00000 0.00000
						CHANNELS 3 Xrotation Yrotation Zrotation
						JOINT RightHandThumb1
						{
							OFFSET 0.00000 0.00000 0.00000
							CHANNELS 3 Xrotation Zrotation Yrotation
							End Site
							{
								OFFSET 0.00000 0.00000 3.93700
							}
						}
						End Site
						{
							OFFSET -3.93700 0.00000 0.00000
						}
					}
				}
			}
		}
	}
	JOINT LeftUpLeg
	{
		OFFSET 3.00056 0.00000 0.00000
		CHANNELS 3 Xrotation Yrotation Zrotation
		JOINT LeftLeg
		{
			OFFSET 0.00000 -16.49085 0.00000
			CHANNELS 3 Xrotation Yrotation Zrotation
			JOINT LeftFoot
			{
				OFFSET 0.00000 -14.55658 0.00000
				CHANNELS 3 Xrotation Yrotation Zrotation
				JOINT LeftToeBase
				{
					OFFSET 0.00000 -1.25038 4.66650
					CHANNELS 3 Xrotation Yrotation Zrotation
					End Site
					{
						OFFSET 0.00000 0.00000 2.95275
					}
				}
			}
		}
	}
	JOINT RightUpLeg
	{
		OFFSET -3.00056 0.00000 0.00000
		CHANNELS 3 Xrotation Yrotation Zrotation
		JOINT RightLeg
		{
			OFFSET 0.00000 -16.49085 0.00000
			CHANNELS 3 Xrotation Yrotation Zrotation
			JOINT RightFoot
			{
				OFFSET 0.00000 -14.55658 0.00000
				CHANNELS 3 Xrotation Yrotation Zrotation
				JOINT RightToeBase
				{
					OFFSET 0.00000 -1.25038 4.66650
					CHANNELS 3 Xrotation Yrotation Zrotation
					End Site
					{
						OFFSET 0.00000 0.00000 2.95275
					}
				}
			}
		}
	}
}
MOTION
Frames: 22
Frame Time: 0.008333
 -4.8860 32.8281 -1.9689 11.6697 -0.4654 -0.5915 -9.1691 4.6646 2.3999 -12.6968 -3.1307 10.2980 8.0921 22.0055 24.8029 -43.1383 13.0884 -29.1212 -30.3870 -0.0000 -11.6960 0.8648 17.7177 -2.8396 33.1476 -0.0000 26.2537 -24.5773 -9.7813 -39.0773 1.8587 -8.4182 30.9011 16.5886 -0.0000 34.0989 2.5600 -12.1272 12.0147 32.8623 0.0000 -24.3270 -7.8251 4.4174 -0.9239 0.7953 -0.0000 -0.0000 -9.9518 12.5651 -7.5518 7.4289 0.0000 -0.0000 -9.2342 -9.5126 0.3933 4.0850 -0.0000 0.0000 -10.3472 -2.8098 -7.8365 -0.6152 0.0000 0.0000
 -4.8695 32.8275 -1.9742 11.7008 -0.4081 -0.5832 -9.2062 4.7228 2.3815 -12.6636 -3.2210 10.3070 8.2106 21.9850 24.6089 -43.5101 13.7386 -29.2543 -31.9650 -0.0000 -11.7649 0.6508 18.0347 -2.1012 33.1476 -0.0000 26.2537 -24.5298 -9.8259 -39.0429 2.1188 -8.4690 31.1399 16.7580 -0.0000 34.1969 2.5164 -12.0078 11.9279 32.8623 0.0000 -24.3270 -7.8838 4.4025 -0.9680 0.8288 -0.0000 0.0000 -9.9809 12.5149 -7.4713 7.5136 -0.0000 -0.0000 -9.2890 -9.5673 0.3432 4.1114 0.0000 0.0000 -10.3566 -2.8179 -7.8032 -0.6420 0.0000 0.0000
 -4.8546 32.8271 -1.9801 11.7317 -0.3337 -0.5878 -9.2482 4.7270 2.3706 -12.6114 -3.2753 10.3279 8.3782 21.9414 24.3739 -43.8866 14.4283 -29.3047 -33.6155 -0.0000 -11.5605 0.4671 18.4180 -1.4781 33.1476 -0.0000 26.2537 -24.4594 -9.8752 -38.9093 2.2634 -8.4636 31.2862 16.8275 -0.0000 34.1845 2.5041 -12.0273 11.8526 32.8623 0.0000 -24.3270 -7.9414 4.3463 -1.0015 0.8397 -0.0000 0.0000 -9.9626 12.5168 -7.4172 7.4920 -0.0000 0.0000 -9.3370 -9.6117 0.3058 4.1312 -0.0000 -0.0000 -10.3760 -2.8439 -7.7800 -0.6043 0.0000 0.0000
 -4.8375 32.8264 -1.9857 11.7660 -0.2582 -0.5927 -9.2901 4.7384 2.3507 -12.5987 -3.3671 10.3346 8.6011 22.0261 24.1016 -44.3321 15.0005 -29.4483 -35.3148 -0.0000 -11.2351 0.2793 18.7735 -0.8679 33.1476 -0.0000 26.2537 -24.4115 -9.9092 -38.8081 2.4386 -8.5297 31.5138 16.9796 -0.0000 34.2976 2.4867 -11.9326 11.8622 32.8623 0.0000 -24.3270 -7.9978 4.3168 -1.0383 0.8541 -0.0000 -0.0000 -9.9538 12.4704 -7.4050 7.4188 0.0000 0.0000 -9.3889 -9.6442 0.2668 4.1514 0.0000 -0.0000 -10.3901 -2.8942 -7.7456 -0.5708 0.0000 -0.0000
 -4.8226 32.8266 -1.9938 11.8112 -0.2176 -0.6112 -9.3449 4.8034 2.3466 -12.5676 -3.4860 10.3536 8.7040 21.9523 23.9039 -44.5951 15.6770 -29.5517 -37.0784 -0.0000 -11.0658 0.1295 19.2815 -0.3922 33.1476 -0.0000 26.2537 -24.3652 -9.9694 -38.6978 2.6755 -8.5483 31.7532 17.1633 -0.0000 34.4003 2.5030 -12.0884 11.7902 32.8623 0.0000 -24.3270 -8.0705 4.3271 -1.0527 0.8800 -0.0000 -0.0000 -9.9610 12.4238 -7.3959 7.4022 -0.0000 -0.0000 -9.4455 -9.5948 0.2500 4.1498 -0.0000 0.0000 -10.3724 -2.9726 -7.6940 -0.5916 -0.0000 0.0000
 -4.8075 32.8258 -1.9989 11.8386 -0.1526 -0.6338 -9.3836 4.8404 2.3426 -12.5419 -3.5836 10.3818 9.0234 22.0033 23.5792 -44.9575 16.2251 -29.6616 -38.8713 -0.0000 -11.1740 -0.0289 19.6567 0.0858 33.1476 -0.0000 26.2537 -24.3008 -10.0655 -38.5644 2.9096 -8.5083 31.9991 17.3115 -0.0000 34.4692 2.5077 -12.1138 11.7881 32.8623 0.0000 -24.3270 -8.1141 4.3210 -1.0667 0.8826 0.0000 -0.0000 -9.9620 12.3562 -7.3665 7.3944 -0.0000 0.0000 -9.4889 -9.5863 0.2341 4.1764 -0.0000 0.0000 -10.3812 -3.0432 -7.6916 -0.5374 0.0000 0.0000
 -4.7859 32.8243 -1.9991 11.8394 -0.0472 -0.5955 -9.3930 4.8350 2.2671 -12.5196 -3.6771 10.3858 9.2475 22.0175 23.3310 -45.2358 16.8536 -29.8169 -40.6776 -0.0000 -11.4139 -0.1419 20.0124 0.4145 33.1476 -0.0000 26.2537 -24.2095 -10.2076 -38.4427 3.1608 -8.3946 32.2961 17.5024 -0.0000 34.5196 2.5336 -12.1211 11.8996 32.8623 0.0000 -24.3270 -8.1202 4.2637 -1.1589 0.8948 0.0000 -0.0000 -9.9240 12.3141 -7.4397 7.2853 -0.0000 -0.0000 -9.5313 -9.6951 0.1392 4.2555 -0.0000 -0.0000 -10.4604 -3.0551 -7.7506 -0.5069 -0.0000 0.0000
 -4.7656 32.8242 -2.0034 11.8811 0.0461 -0.6110 -9.4646 4.8442 2.2532 -12.4872 -3.7836 10.4090 9.5376 22.0629 23.0244 -45.5483 17.4007 -29.9919 -42.5003 -0.0000 -11.8008 -0.2976 20.4271 0.8525 33.1476 -0.0000 26.2537 -24.0895 -10.3692 -38.2962 3.2614 -8.3223 32.5946 17.6376 -0.0000 35.0009 2.5174 -11.9892 11.9503 32.8623 0.0000 -24.3270 -8.1729 4.1824 -1.1938 0.8923 0.0000 -0.0000 -9.9353 12.3013 -7.3796 7.3629 0.0000 -0.0000 -9.5996 -9.7288 0.0971 4.3046 -0.0000 -0.0000 -10.4774 -3.1201 -7.7037 -0.5140 0.0000 0.0000
 -4.7476 32.8232 -2.0071 11.9189 0.1147 -0.6350 -9.5245 4.8859 2.2281 -12.4846 -3.9466 10.4234 9.7560 22.1120 22.7904 -45.7002 17.9432 -30.2396 -44.3801 -0.0000 -12.4573 -0.3973 20.7330 1.1221 33.1476 -0.0000 26.2537 -23.9580 -10.5509 -38.1893 3.6049 -8.1523 33.0252 17.8977 -0.0000 35.0779 2.4845 -12.1767 11.6242 32.8623 0.0000 -24.3270 -8.2145 4.1321 -1.2129 0.8695 0.0000 -0.0000 -9.9331 12.2623 -7.2939 7.3398 -0.0000 0.0000 -9.6671 -9.7228 0.0757 4.3631 0.0000 -0.0000 -10.5022 -3.2133 -7.6834 -0.5369 -0.0000 0.0000
 -4.7289 32.8224 -2.0089 11.9329 0.1865 -0.6550 -9.5660 4.9007 2.1958 -12.4535 -4.0570 10.4730 10.1065 22.2284 22.4538 -45.9832 18.4221 -30.4604 -46.2517 -0.0000 -13.3215 -0.5029 21.0085 1.4026 33.1476 -0.0000 26.2537 -23.8223 -10.6831 -38.0036 4.1692 -7.9041 33.3924 18.2434 -0.0000 35.1095 2.4812 -12.1645 11.6201 32.8623 0.0000 -24.3270 -8.2235 4.0654 -1.2387 0.8440 0.0000 -0.0000 -9.9496 12.2412 -7.2163 7.4432 -0.0000 0.0000 -9.7002 -9.7322 0.0475 4.4069 0.0000 -0.0000 -10.5197 -3.2764 -7.6681 -0.5259 -0.0000 -0.0000
 -4.7081 32.8214 -2.0120 11.9516 0.2687 -0.6705 -9.6051 4.9022 2.1618 -12.4392 -4.2089 10.5069 10.4659 22.3419 22.1083 -46.2463 18.9364 -30.7144 -48.2312 -0.0000 -14.2261 -0.6987 21.4367 1.9111 33.1476 -0.0000 26.2537 -23.6909 -10.7900 -37.8646 4.8419 -7.6333 33.8642 18.6342 -0.0000 35.0317 2.4432 -12.1663 11.4454 32.8623 0.0000 -24.3270 -8.2477 3.9659 -1.2739 0.8372 0.0000 -0.0000 -9.9495 12.2439 -7.1419 7.3916 0.0000 0.0000 -9.7520 -9.7608 0.0044 4.4731 0.0000 -0.0000 -10.5431 -3.3302 -7.6359 -0.5102 0.0000 0.0000
 -4.6851 32.8207 -2.0163 11.9652 0.3516 -0.6912 -9.6325 4.9241 2.1255 -12.4454 -4.3916 10.5308 10.6324 22.3584 21.8864 -46.2255 19.5291 -31.0364 -50.3594 -0.0000 -15.2699 -0.8700 21.8676 2.3346 33.1476 -0.0000 26.2537 -23.5426 -10.9138 -37.7027 5.4261 -7.4159 34.3481 19.0189 -0.0000 34.9763 2.4385 -12.2885 11.3146 32.8623 0.0000 -24.3270 -8.2764 3.8775 -1.3097 0.8430 0.0000 0.0000 -9.9576 12.2364 -7.0996 7.4318 0.0000 -0.0000 -9.8028 -9.7978 -0.0369 4.5458 0.0000 0.0000 -10.5777 -3.4017 -7.5695 -0.5158 0.0000 -0.0000
 -4.6631 32.8199 -2.0172 11.9616 0.4071 -0.7112 -9.6468 4.9973 2.0852 -12.4633 -4.5513 10.5361 11.0427 22.4605 21.5116 -46.5549 20.0598 -31.3107 -52.4676 -0.0000 -16.0054 -1.0061 22.3572 2.6433 33.1476 -0.0000 26.2537 -23.3553 -11.1031 -37.5171 6.0090 -7.1698 34.8237 19.4428 -0.0000 34.6693 2.4179 -12.4667 11.0673 32.8623 0.0000 -24.3270 -8.2744 3.8541 -1.3385 0.8379 0.0000 0.0000 -9.9338 12.2053 -7.1381 7.2964 -0.0000 0.0000 -9.8291 -9.8066 -0.0722 4.6120 0.0000 -0.0000 -10.6057 -3.4568 -7.5047 -0.4596 -0.0000 -0.0000
 -4.6383 32.8192 -2.0218 11.9804 0.4507 -0.7329 -9.6825 5.0859 2.0551 -12.4936 -4.7215 10.5787 11.3721 22.4820 21.1969 -46.7850 20.6827 -31.5951 -54.6106 -0.0000 -16.6041 -1.1396 22.7387 2.9460 33.1476 -0.0000 26.2537 -23.1504 -11.3556 -37.3101 6.3517 -6.9649 35.2789 19.7735 -0.0000 34.5839 2.3067 -12.0542 10.9174 32.8623 0.0000 -24.3270 -8.3154 3.7819 -1.3701 0.8630 0.0000 0.0000 -9.9741 12.1880 -6.9504 7.3610 0.0000 0.0000 -9.8901 -9.7830 -0.1079 4.6876 0.0000 -0.0000 -10.6323 -3.5375 -7.4755 -0.4255 0.0000 0.0000
 -4.6137 32.8182 -2.0254 11.9946 0.5233 -0.7488 -9.7111 5.1375 1.9849 -12.4992 -4.8863 10.6378 11.6009 22.4161 20.9873 -46.7857 21.3924 -31.8657 -56.8034 -0.0000 -17.1145 -1.3059 22.9898 3.3403 33.1476 -0.0000 26.2537 -22.9736 -11.5582 -37.0874 6.6206 -6.8682 35.7865 20.0953 -0.0000 34.4425 2.2389 -11.9470 10.6950 32.8623 0.0000 -24.3270 -8.3518 3.6961 -1.4128 0.8904 0.0000 0.0000 -9.9740 12.2016 -6.9503 7.2563 0.0000 -0.0000 -9.9494 -9.8219 -0.1589 4.7760 -0.0000 -0.0000 -10.6755 -3.5918 -7.3975 -0.3976 -0.0000 0.0000
 -4.5885 32.8175 -2.0298 12.0120 0.5877 -0.7650 -9.7512 5.2012 1.9261 -12.5175 -5.0459 10.6970 11.8648 22.3994 20.7498 -46.9231 22.0948 -32.1898 -59.0165 -0.0000 -17.3084 -1.3829 23.4115 3.4768 33.1476 -0.0000 26.2537 -22.8125 -11.7174 -36.8511 6.8389 -6.9445 36.3105 20.5606 -0.0000 34.4282 2.2001 -11.9201 10.5367 32.8623 0.0000 -24.3270 -8.4056 3.6963 -1.4537 0.9493 0.0000 -0.0000 -9.9974 12.1172 -6.8978 7.1975 0.0000 -0.0000 -10.0343 -9.8773 -0.2165 4.9059 0.0000 -0.0000 -10.7320 -3.6015 -7.2916 -0.3689 0.0000 -0.0000
 -4.5615 32.8181 -2.0352 12.0375 0.6543 -0.7661 -9.7939 5.2924 1.8432 -12.5444 -5.2370 10.7102 12.2456 22.5815 20.4056 -47.1501 22.4798 -32.6484 -61.1664 -0.0000 -17.5780 -1.5841 23.7877 3.9222 33.1476 -0.0000 26.2537 -22.6620 -11.9338 -36.6444 7.0003 -6.9904 36.8989 20.9912 -0.0000 34.3409 2.2424 -12.0682 10.6077 32.8623 0.0000 -24.3270 -8.5226 3.8298 -1.5101 1.1280 -0.0000 -0.0000 -10.0558 11.9112 -6.8322 7.1243 0.0000 -0.0000 -10.1344 -9.9225 -0.2917 5.0383 -0.0000 -0.0000 -10.7706 -3.6264 -7.2006 -0.3521 0.0000 -0.0000
 -4.5351 32.8167 -2.0393 12.0229 0.7279 -0.8078 -9.7904 5.3207 1.8269 -12.5942 -5.3464 10.7242 12.5551 22.6433 20.1094 -47.2613 23.0565 -33.0357 -63.3495 -0.0000 -17.6697 -1.6078 24.2064 3.9160 33.1476 -0.0000 26.2537 -22.5082 -12.0975 -36.4042 7.2048 -6.9934 37.4758 21.3618 -0.0000 34.1005 2.1139 -12.0618 10.0174 32.8623 0.0000 -24.3270 -8.5219 3.5879 -1.5288 1.1247 -0.0000 -0.0000 -10.0723 12.0381 -6.7496 7.1099 0.0000 0.0000 -10.1890 -9.9860 -0.3239 5.1826 0.0000 0.0000 -10.8236 -3.6513 -7.1327 -0.3398 -0.0000 -0.0000
 -4.5044 32.8173 -2.0446 12.0329 0.7852 -0.8220 -9.8296 5.4100 1.7861 -12.5805 -5.5519 10.6698 12.9076 22.6697 19.7928 -47.3041 23.5291 -33.4043 -65.4837 -0.0000 -17.9564 -1.4700 24.4936 3.5418 33.1476 -0.0000 26.2537 -22.3234 -12.2876 -36.1636 7.2732 -7.1735 38.0840 21.8622 -0.0000 34.1942 2.0689 -12.0166 9.8437 32.8623 0.0000 -24.3270 -8.5689 3.5141 -1.5808 1.1909 -0.0000 0.0000 -10.1450 12.0201 -6.5410 7.3012 -0.0000 0.0000 -10.2735 -9.9976 -0.3897 5.3172 -0.0000 0.0000 -10.8598 -3.7168 -7.0379 -0.3076 0.0000 0.0000
 -4.4721 32.8164 -2.0466 12.0046 0.8827 -0.8164 -9.8279 5.4548 1.6952 -12.5732 -5.7115 10.7252 13.1624 22.6750 19.5702 -47.2065 23.9920 -33.8231 -67.5755 -0.0000 -18.2136 -1.4358 24.8038 3.4192 33.1476 -0.0000 26.2537 -22.2050 -12.3663 -35.9154 7.6002 -7.2917 38.7351 22.3360 -0.0000 34.2239 2.0080 -12.0324 9.5469 32.8623 0.0000 -24.3270 -8.5856 3.4338 -1.6633 1.2809 0.0000 0.0000 -10.2020 11.9803 -6.4727 7.3498 -0.0000 0.0000 -10.3098 -10.0378 -0.4804 5.4413 0.0000 -0.0000 -10.9156 -3.7810 -6.9994 -0.2975 -0.0000 0.0000
 -4.4416 32.8151 -2.0514 11.9941 0.9477 -0.8596 -9.8442 5.5319 1.6736 -12.5917 -5.8558 10.6773 13.4880 22.7582 19.2793 -47.1498 24.2973 -34.2858 -69.5737 -0.0000 -18.3883 -1.3392 25.0103 3.1648 33.1476 -0.0000 26.2537 -22.1025 -12.4584 -35.7066 8.0009 -7.3320 39.4271 22.8422 -0.0000 34.4565 2.0926 -12.1128 9.8782 32.8623 0.0000 -24.3270 -8.6322 3.4612 -1.6828 1.3716 -0.0000 -0.0000 -10.2385 11.8759 -6.3685 7.2612 -0.0000 -0.0000 -10.3792 -10.0777 -0.5144 5.5978 -0.0000 0.0000 -10.9535 -3.8252 -6.9727 -0.3248 0.0000 0.0000
 -4.4108 32.8127 -2.0490 11.9616 1.0185 -0.8781 -9.8589 5.6268 1.6165 -12.5713 -6.0686 10.6818 13.7416 22.7934 19.0489 -47.0066 24.5615 -34.7641 -71.4472 -0.0000 -18.3839 -1.1549 25.1031 2.7204 33.1476 -0.0000 26.2537 -21.9801 -12.6056 -35.4895 8.3768 -7.2914 40.1412 23.2864 -0.0000 34.7461 2.1278 -12.0911 10.0581 32.8623 0.0000 -24.3270 -8.6074 3.4056 -1.7319 1.3928 0.0000 -0.0000 -10.2689 11.8485 -6.3135 7.3074 0.0000 0.0000 -10.4246 -10.1731 -0.5773 5.7689 -0.0000 -0.0000 -11.0286 -3.8203 -6.9482 -0.3421 0.0000 0.0000
